<?xml version="1.0" standalone="no"?>
<!DOCTYPE svg PUBLIC "-//W3C//DTD SVG 20010904//EN"
 "http://www.w3.org/TR/2001/REC-SVG-20010904/DTD/svg10.dtd">
<svg version="1.0" xmlns="http://www.w3.org/2000/svg"
 width="500.000000pt" height="500.000000pt" viewBox="0 0 500.000000 500.000000"
 preserveAspectRatio="xMidYMid meet">
<metadata>
Created by potrace 1.14, written by Peter Selinger 2001-2017
</metadata>
<g transform="translate(0.000000,500.000000) scale(0.100000,-0.100000)"
fill="#000000" stroke="none">
<path d="M2455 4208 c-11 -6 -31 -18 -45 -26 -14 -9 -27 -17 -30 -17 -3 0 -55
-30 -117 -67 -61 -36 -121 -69 -132 -73 -12 -3 -21 -11 -21 -16 0 -5 -4 -9 -9
-9 -5 0 -74 -38 -155 -85 -80 -47 -150 -85 -155 -85 -5 0 -11 -4 -13 -8 -1 -5
-34 -26 -73 -47 -38 -21 -79 -43 -90 -49 -11 -6 -27 -16 -35 -22 -8 -6 -40
-25 -70 -41 -30 -17 -131 -74 -225 -128 -93 -55 -180 -104 -192 -109 -13 -6
-23 -14 -23 -18 0 -5 -5 -8 -10 -8 -6 0 -26 -10 -45 -22 l-35 -23 0 -852 0
-852 123 -72 c67 -39 139 -82 160 -95 20 -13 37 -21 37 -18 0 4 8 0 18 -8 9
-9 49 -33 87 -55 130 -74 340 -193 355 -203 25 -15 474 -273 495 -284 11 -6
22 -13 25 -16 3 -3 14 -10 25 -16 87 -46 111 -60 115 -64 3 -3 21 -14 41 -24
36 -19 37 -19 75 0 58 29 128 68 134 75 3 3 19 12 35 20 17 9 91 51 165 94
250 145 303 175 305 175 2 0 33 18 69 40 37 22 90 53 119 69 28 16 141 80 250
144 108 63 197 112 197 109 0 -4 4 -2 8 4 4 6 49 34 100 63 50 29 96 60 100
69 10 21 9 1683 -1 1699 -4 7 -69 47 -145 90 -75 42 -139 80 -142 83 -3 3 -24
14 -47 25 -24 11 -43 23 -43 28 0 4 -4 7 -10 7 -5 0 -55 27 -111 60 -55 33
-102 60 -103 60 -4 0 -161 91 -240 138 -37 23 -70 42 -72 42 -4 0 -147 83
-174 100 -8 5 -40 23 -70 40 -30 16 -77 43 -105 60 -27 17 -59 35 -70 41 -11
5 -29 15 -40 22 -95 56 -117 67 -142 67 -15 0 -37 -6 -48 -12z m78 -130 c15
-7 27 -16 27 -20 0 -5 4 -8 9 -8 9 0 290 -159 351 -198 14 -9 27 -17 30 -17 5
0 58 -31 230 -132 41 -25 84 -49 95 -56 27 -15 101 -57 289 -165 87 -51 161
-92 164 -92 3 0 20 -11 37 -25 18 -13 35 -22 37 -20 3 3 12 -3 21 -13 15 -17
13 -19 -31 -43 -26 -14 -110 -63 -186 -107 -76 -45 -141 -82 -143 -82 -2 0
-28 -15 -58 -34 -29 -19 -56 -32 -59 -29 -3 4 -6 1 -6 -5 0 -7 -4 -12 -9 -12
-9 0 -276 -154 -298 -172 -7 -6 -13 -7 -13 -3 0 4 -15 -3 -32 -17 -18 -13 -58
-36 -88 -52 -30 -16 -62 -34 -70 -40 -15 -11 -26 -17 -99 -58 -20 -11 -77 -44
-128 -74 -51 -30 -96 -54 -100 -54 -7 0 -183 98 -233 130 -19 12 -115 67 -160
93 -33 18 -90 52 -155 90 -16 10 -38 20 -47 23 -10 4 -18 10 -18 15 0 5 -4 9
-9 9 -6 0 -80 41 -165 90 -86 50 -161 90 -166 90 -6 0 -10 5 -10 10 0 6 -4 10
-9 10 -5 0 -55 27 -111 60 -56 33 -104 60 -106 60 -2 0 -23 12 -47 27 -23 15
-54 33 -69 40 -19 8 -26 17 -22 27 3 9 10 16 15 16 4 0 49 25 100 55 50 30 93
55 94 55 2 0 38 20 79 45 42 25 79 45 81 45 3 0 24 11 46 26 22 14 56 34 75
45 53 30 82 47 329 190 127 73 255 146 285 162 30 17 62 36 70 43 8 7 22 14
30 16 8 2 17 5 20 8 7 8 94 59 101 60 3 0 17 -6 32 -12z m-1303 -941 c30 -17
84 -48 119 -69 34 -21 65 -38 67 -38 2 0 25 -13 51 -29 92 -56 138 -82 156
-88 9 -3 17 -9 17 -14 0 -5 5 -9 10 -9 10 0 169 -88 180 -100 3 -3 30 -18 60
-34 30 -16 63 -36 73 -44 9 -8 17 -12 17 -8 0 4 19 -6 43 -22 23 -16 71 -45
107 -64 36 -20 111 -63 168 -97 57 -34 108 -61 112 -61 20 0 30 -43 28 -119
-2 -44 0 -83 4 -86 4 -4 3 -18 -2 -30 -5 -14 -5 -37 0 -54 4 -16 6 -32 3 -34
-7 -7 -7 -206 0 -213 3 -4 2 -17 -4 -31 -6 -16 -5 -22 1 -18 5 3 8 0 5 -7 -10
-29 -13 -78 -5 -83 5 -3 5 -19 0 -35 -5 -17 -5 -43 0 -59 4 -15 4 -34 0 -42
-5 -7 -4 -21 1 -30 6 -12 5 -20 -1 -24 -8 -5 -8 -11 -1 -19 6 -7 8 -16 4 -19
-6 -7 -6 -72 0 -134 2 -18 1 -33 -3 -33 -5 0 -5 -59 1 -86 1 -5 1 -11 0 -14
-6 -16 -5 -113 2 -117 4 -2 4 -9 1 -15 -4 -6 -6 -48 -6 -92 1 -45 -1 -89 -4
-99 -5 -16 -8 -17 -22 -4 -10 8 -93 58 -187 112 -93 54 -185 106 -202 116 -46
27 -97 55 -140 80 -48 27 -277 160 -323 188 -19 11 -42 24 -50 28 -8 4 -91 51
-183 105 -93 54 -172 98 -175 98 -4 0 -18 9 -31 19 l-24 18 1 719 c0 395 1
730 1 742 l1 24 38 -22 c20 -13 62 -36 92 -53z m2676 -669 l-1 -743 -70 -41
c-233 -137 -387 -224 -396 -224 -5 0 -9 -4 -9 -9 0 -5 -8 -11 -17 -15 -10 -3
-40 -19 -68 -35 -27 -17 -61 -36 -75 -43 -14 -7 -49 -27 -78 -45 -29 -18 -54
-33 -56 -33 -3 0 -55 -30 -118 -67 -62 -37 -116 -67 -120 -66 -3 2 -12 -4 -18
-12 -7 -8 -19 -15 -26 -15 -8 0 -14 -4 -14 -8 0 -5 -16 -14 -35 -22 -19 -8
-35 -17 -35 -21 0 -4 -8 -9 -17 -12 -19 -6 -73 -36 -135 -75 -21 -13 -41 -21
-45 -19 -10 7 -10 1458 0 1474 6 10 85 57 262 158 37 21 238 138 330 191 22
13 47 27 55 31 8 4 43 24 78 45 34 21 67 38 72 38 6 0 10 5 10 10 0 6 4 10 8
10 7 0 81 39 140 75 10 6 49 28 87 50 39 22 78 44 87 50 9 5 41 23 70 39 29
16 69 39 88 52 19 13 37 24 40 24 4 0 6 -334 6 -742z"/>
</g>
</svg>
