<?xml version="1.0" standalone="no"?>
<!DOCTYPE svg PUBLIC "-//W3C//DTD SVG 20010904//EN"
 "http://www.w3.org/TR/2001/REC-SVG-20010904/DTD/svg10.dtd">
<svg version="1.0" xmlns="http://www.w3.org/2000/svg"
 width="704.000000pt" height="704.000000pt" viewBox="0 0 704.000000 704.000000"
 preserveAspectRatio="xMidYMid meet">
<metadata>
Created by potrace 1.14, written by Peter Selinger 2001-2017
</metadata>
<g transform="translate(0.000000,704.000000) scale(0.100000,-0.100000)"
fill="#000000" stroke="none">
<path d="M3435 7028 c-16 -6 -59 -24 -95 -41 -36 -16 -71 -30 -77 -30 -7 0
-13 -3 -13 -6 0 -3 -15 -12 -32 -20 -18 -7 -53 -22 -78 -33 -25 -11 -58 -26
-75 -33 -16 -7 -55 -24 -85 -38 -107 -49 -135 -60 -142 -59 -5 1 -8 -2 -8 -8
0 -6 -3 -9 -7 -8 -8 1 -16 -2 -106 -41 -26 -11 -48 -20 -50 -20 -1 0 -24 -10
-52 -24 -57 -28 -72 -35 -255 -115 -123 -54 -203 -90 -285 -127 -85 -38 -131
-59 -135 -60 -3 0 -30 -12 -60 -25 -30 -14 -58 -24 -62 -22 -5 1 -8 -1 -8 -6
0 -4 -15 -13 -32 -21 -59 -24 -168 -71 -233 -101 -169 -77 -199 -90 -211 -90
-8 0 -14 -4 -14 -10 0 -5 -5 -10 -11 -10 -10 0 -77 -28 -209 -88 -30 -13 -77
-34 -105 -47 -27 -12 -72 -32 -100 -44 -27 -12 -59 -26 -70 -31 -11 -5 -60
-27 -109 -50 -49 -22 -95 -40 -102 -40 -8 0 -14 -4 -14 -10 0 -5 -6 -10 -12
-10 -27 0 -114 -49 -150 -82 -20 -19 -49 -59 -65 -89 l-28 -54 0 -1905 0
-1905 24 -50 c45 -94 93 -128 397 -280 153 -77 296 -150 316 -162 21 -13 38
-20 38 -17 0 4 9 -1 19 -10 11 -10 25 -18 33 -20 7 -1 18 -4 23 -8 10 -6 198
-102 800 -408 154 -78 285 -145 290 -148 6 -4 12 -7 15 -7 8 -2 144 -69 155
-78 5 -4 132 -69 280 -143 149 -75 362 -183 474 -241 112 -57 211 -105 220
-106 9 -1 21 -6 27 -9 5 -4 42 -6 81 -4 70 3 79 6 325 131 354 179 407 205
417 205 5 0 11 3 13 8 2 4 98 55 213 113 116 59 350 177 520 264 171 87 333
169 360 182 28 13 57 27 65 32 14 8 404 207 899 458 117 59 232 124 255 144
23 20 55 63 71 95 l30 59 0 1900 c0 1875 0 1901 -20 1945 -36 81 -90 135 -175
172 -36 16 -85 39 -110 50 -79 36 -135 61 -140 63 -3 1 -21 8 -40 17 -19 8
-219 97 -445 197 -225 100 -428 190 -450 201 -22 11 -123 56 -225 101 -102 45
-205 91 -230 102 -25 11 -47 21 -50 22 -10 3 -56 24 -115 51 -33 15 -62 28
-65 29 -3 0 -31 13 -63 28 -32 15 -59 27 -62 27 -2 0 -32 13 -67 29 -35 16
-166 75 -293 131 -126 55 -252 112 -280 125 -201 94 -270 119 -340 121 -38 1
-83 -3 -100 -8z m172 -692 c43 -19 88 -37 101 -41 12 -3 22 -11 22 -16 0 -5 6
-9 14 -9 12 0 126 -49 286 -122 25 -11 81 -36 125 -55 44 -19 113 -50 153 -69
41 -19 76 -34 78 -34 2 0 43 -18 90 -40 47 -22 88 -40 90 -40 2 0 34 -14 71
-31 93 -42 117 -52 125 -51 3 1 12 -5 18 -13 7 -8 18 -15 25 -15 7 0 44 -14
81 -31 38 -17 93 -42 122 -55 28 -13 76 -35 105 -49 30 -14 57 -25 60 -25 3 0
34 -13 69 -29 139 -65 314 -143 323 -145 6 -1 29 -12 51 -24 23 -11 45 -18 49
-14 4 4 6 1 4 -7 -5 -14 -295 -180 -316 -181 -7 0 -13 -4 -13 -10 0 -5 -4 -10
-9 -10 -7 0 -358 -193 -401 -220 -8 -5 -28 -16 -45 -24 -16 -8 -57 -31 -90
-50 -33 -20 -77 -43 -97 -53 -21 -10 -38 -21 -38 -25 0 -5 -5 -8 -11 -8 -9 0
-210 -108 -259 -140 -8 -5 -40 -22 -70 -38 -62 -33 -102 -55 -177 -100 -29
-17 -53 -29 -53 -25 0 3 -8 -1 -17 -9 -10 -9 -58 -37 -108 -63 -49 -27 -91
-52 -93 -57 -2 -4 -8 -8 -14 -8 -5 0 -83 -41 -174 -91 l-164 -91 -26 21 c-15
12 -31 21 -35 21 -5 0 -62 30 -127 67 -64 37 -133 75 -152 85 -19 10 -42 23
-50 28 -8 5 -51 29 -95 53 -44 24 -102 57 -130 72 -27 15 -68 38 -90 50 -22
12 -101 55 -175 97 -182 101 -215 120 -285 158 -33 18 -89 49 -125 70 -36 20
-90 51 -120 67 -30 17 -71 39 -90 50 -37 21 -113 63 -220 121 -36 19 -77 44
-92 54 -16 11 -28 16 -28 12 0 -4 -8 0 -17 8 -10 8 -54 34 -98 58 -142 77
-170 92 -178 100 -4 4 45 31 110 60 65 29 147 66 183 82 36 17 79 36 95 43 17
7 53 23 80 35 28 13 68 31 91 40 23 10 65 29 95 43 65 29 58 26 489 217 190
84 368 163 395 175 28 13 73 33 100 44 28 12 64 29 80 37 64 31 410 183 417
184 4 0 42 -15 85 -34z m-2601 -1445 c5 -5 34 -22 64 -39 30 -16 136 -75 235
-129 99 -55 212 -117 250 -138 39 -21 75 -41 80 -46 6 -4 35 -21 65 -37 81
-42 133 -73 148 -84 6 -6 12 -7 12 -3 0 5 8 1 18 -7 15 -13 59 -39 177 -102
22 -11 42 -24 43 -28 2 -5 12 -8 23 -8 10 0 19 -4 19 -9 0 -5 16 -15 35 -22
19 -7 35 -16 35 -20 0 -4 15 -12 33 -20 17 -7 48 -22 67 -34 19 -12 76 -43
125 -70 50 -26 97 -54 106 -61 8 -8 19 -14 23 -14 3 0 68 -34 144 -77 175 -98
185 -103 257 -143 33 -18 91 -50 128 -71 38 -22 72 -39 76 -39 5 0 15 -8 23
-17 13 -16 15 -187 14 -1408 -1 -765 -4 -1389 -9 -1388 -8 2 -93 45 -547 275
-173 88 -479 244 -680 345 -201 102 -369 189 -375 194 -5 5 -17 9 -26 9 -10 0
-19 3 -21 8 -1 4 -57 34 -123 66 -66 33 -133 69 -150 80 -16 12 -31 20 -33 18
-1 -2 -60 26 -131 62 -80 41 -130 72 -132 83 -4 15 -3 2828 0 2871 1 14 13 16
27 3z m5065 -3 c0 -7 1 -656 2 -1442 1 -940 -1 -1433 -8 -1441 -5 -7 -107 -62
-225 -121 -118 -60 -218 -112 -221 -117 -3 -5 -9 -8 -13 -8 -7 1 -126 -58
-586 -292 -184 -94 -443 -225 -575 -291 -132 -67 -242 -123 -245 -126 -12 -12
-350 -177 -351 -171 -1 3 -2 632 -3 1397 l-1 1391 55 29 c30 16 57 32 58 37 2
4 7 7 12 7 4 0 77 39 161 86 85 47 188 104 229 127 41 22 125 68 185 103 61
34 135 75 165 91 30 17 112 62 182 102 71 39 132 71 138 71 5 0 10 5 10 10 0
6 4 10 8 10 13 0 217 113 220 122 2 4 8 8 14 8 6 0 112 57 237 127 124 69 260
144 301 167 41 22 111 61 155 87 88 52 95 55 96 37z"/>
</g>
</svg>
